<?xml version="1.0" encoding="iso-8859-1"?>
<!-- Uploaded to: SVG Repo, www.svgrepo.com, Generator: SVG Repo Mixer Tools -->
<!DOCTYPE svg PUBLIC "-//W3C//DTD SVG 1.1//EN" "http://www.w3.org/Graphics/SVG/1.1/DTD/svg11.dtd">
<svg fill="#000000" version="1.1" id="Capa_1" xmlns="http://www.w3.org/2000/svg" xmlns:xlink="http://www.w3.org/1999/xlink" 
	 width="800px" height="800px" viewBox="0 0 408.221 408.221"
	 xml:space="preserve">
<g>
	<g>
		<path d="M204.11,0C91.388,0,0,91.388,0,204.111c0,112.725,91.388,204.11,204.11,204.11c112.729,0,204.11-91.385,204.11-204.11
			C408.221,91.388,316.839,0,204.11,0z M133.066,201.931l54.152-94.419c9.326-16.266,24.438-16.266,33.759,0l54.148,94.419
			c9.346,16.263,1.691,29.459-17.06,29.459H150.124C131.375,231.39,123.741,218.193,133.066,201.931z M255.598,292.551H152.627
			c-18.751,0-33.943-10.279-33.943-22.999c0-12.711,15.198-22.998,33.943-22.998h102.971c18.739,0,33.947,10.287,33.947,22.998
			C289.545,282.264,274.337,292.551,255.598,292.551z"/>
	</g>
</g>
</svg>